# AST/ASF file generated using VICON BodyLanguage
# -----------------------------------------------
:version 1.10
:name VICON
:units
  mass 1.0
  length 0.45
  angle deg
:documentation
   .ast/.asf automatically generated from VICON data using
   VICON BodyBuilder and BodyLanguage model FoxedUp or BRILLIANT.MOD
:root
   order TX TY TZ RX RY RZ
   axis XYZ
   position 0 0 0  
   orientation 0 0 0 
:bonedata
  begin
     id 1 
     name lhipjoint
     direction 0.521452 -0.77106 0.36545 
     length 2.0933 
     axis 0 0 0  XYZ
  end
  begin
     id 2 
     name lfemur
     direction 0.34202 -0.939693 0  
     length 6.83441  
     axis 0 0 20  XYZ
    dof rx ry rz
    limits (-160.0 20.0)
           (-70.0 70.0)
           (-60.0 70.0)
  end
  begin
     id 3 
     name ltibia
     direction 0.34202 -0.939693 0   
     length 7.28749   
     axis 0 0 20   XYZ
    dof rx
    limits (-10.0 170.0)
  end
  begin
     id 4 
     name lfoot
     direction 0.100608 -0.276418 0.955757   
     length 1.52195   
     axis -90 7.62852e-016 20   XYZ
    dof rx rz
    limits (-45.0 90.0)
           (-70.0 20.0)
  end
  begin
     id 5 
     name ltoes
     direction 1.53558e-011 -4.21907e-011 1   
     length 0.770459   
     axis -90 7.62852e-016 20   XYZ
    dof rx
    limits (-90.0 20.0)
  end
  begin
     id 6 
     name rhipjoint
     direction -0.488071 -0.788702 0.373812   
     length 2.04648  
     axis 0 0 0  XYZ 
  end
  begin
     id 7 
     name rfemur
     direction -0.34202 -0.939693 0   
     length 6.92583   
     axis 0 0 -20   XYZ
    dof rx ry rz
    limits (-160.0 20.0)
           (-70.0 70.0)
           (-70.0 60.0)
  end
  begin
     id 8 
     name rtibia
     direction -0.34202 -0.939693 0   
     length 7.41043   
     axis 0 0 -20   XYZ
    dof rx
    limits (-10.0 170.0)
 end
 begin
     id 9 
     name rfoot
     direction -0.0784433 -0.215521 0.973343   
     length 1.67708  
     axis -90 -7.62852e-016 -20   XYZ
    dof rx rz
    limits (-45.0 90.0)
           (-20.0 70.0)
  end
  begin
     id 10 
     name rtoes
     direction -1.53551e-011 -4.21842e-011 1   
     length 0.849787   
     axis -90 -7.62852e-016 -20   XYZ
    dof rx
    limits (-90.0 20.0)
  end
  begin
     id 11 
     name lowerback
     direction -0.0122332 0.997575 -0.0685192   
     length 1.98724   
     axis 0 0 0   XYZ
    dof rx ry rz
    limits (-20.0 45.0)
           (-30.0 30.0)
           (-30.0 30.0)
  end
  begin
     id 12 
     name upperback
     direction 0.0182347 0.999724 -0.0148421   
     length 1.99029   
     axis 0 0 0   XYZ
    dof rx ry rz
    limits (-20.0 45.0)
           (-30.0 30.0)
           (-30.0 30.0)
  end
  begin
     id 13 
     name thorax
     direction 0.0242908 0.99956 0.0170184   
     length 1.99573   
     axis 0 0 0   XYZ
    dof rx ry rz
    limits (-20.0 45.0)
           (-30.0 30.0)
           (-30.0 30.0)
  end
  begin
     id 14 
     name lowerneck
     direction 0.0654488 0.985533 0.156338   
     length 1.4285   
     axis 0 0 0   XYZ
    dof rx ry rz
    limits (-20.0 45.0)
           (-30.0 30.0)
           (-30.0 30.0)
  end
  begin
     id 15 
     name upperneck
     direction -0.02953 0.998556 -0.0448842   
     length 1.44709   
     axis 0 0 0   XYZ
    dof rx ry rz
    limits (-20.0 45.0)
           (-30.0 30.0)
           (-30.0 30.0)
  end
  begin
     id 16
     name head
     direction -0.0155588 0.999386 -0.0314063  
     length 1.44689  
     axis 0 0 0   XYZ
    dof rx ry rz
    limits (-20.0 45.0)
           (-30.0 30.0)
           (-30.0 30.0)
  end
  begin
     id 17 
     name lclavicle
     direction 0.968229 0.236071 -0.0824755  
     length 3.60593  
     axis 0 0 0   XYZ
    dof ry rz
    limits (-20.0 10.0)
           (0.0 20.0)
  end
  begin
     id 18 
     name lhumerus
     direction 1 -4.48968e-011 7.8138e-029   
     length 5.06035   
     axis 180 -30 -90   XYZ
    dof rx ry rz
    limits (-60.0 90.0)
           (-90.0 90.0)
           (-90.0 90.0)
  end
  begin
     id 19
     name lradius
     direction 1 -4.48967e-011 9.02887e-028   
     length 3.1478   
     axis 180 -30 -90   XYZ
    dof rx
    limits (-10.0 170.0)
  end
  begin
     id 20
     name lwrist
     direction 1 -4.48961e-011 7.20928e-028   
     length 1.5739   
     axis -5.52449e-016 90 90   XYZ
    dof ry
    limits (-180.0 0.0)
 end
  begin
     id 21 
     name lhand
     direction 1 -4.48972e-011 1.44186e-027   
     length 0.606747   
     axis -9.20027e-016 90 90   XYZ
    dof rx rz
    limits (-90.0 90.0)
           (-45.0 45.0)
  end
  begin
     id 22 
     name lfingers
     direction 1 -4.48943e-011 2.88371e-027   
     length 0.489175   
     axis -1.84005e-015 90 90   XYZ
    dof rx
    limits (0.0 90.0)
  end
  begin
     id 23
     name lthumb
     direction 0.707107 -6.34917e-011 0.707107   
     length 0.70236   
     axis -90 45 2.85299e-015   XYZ
    dof rx rz
    limits (-45.0 45.0)
           (-45.0 45.0)
  end
  begin
     id 24 
     name rclavicle
     direction -0.978165 0.207816 0.0022268   
     length 3.35425  
     axis 0 0 0   XYZ 
    dof ry rz
    limits (-10.0 20.0)
           (-20.0 0.0)
  end
  begin
     id 25 
     name rhumerus
     direction -1 -4.48964e-011 -4.02159e-027  
     length 5.12273   
     axis 180 30 90   XYZ
    dof rx ry rz
    limits (-90.0 60.0)
           (-90.0 90.0)
           (-90.0 90.0)
  end
  begin
     id 26 
     name rradius
     direction -1 -4.48966e-011 1.62746e-027   
     length 3.422   
     axis 180 30 90   XYZ
    dof rx
    limits (-10.0 170.0)
  end
  begin
     id 27 
     name rwrist
     direction -1 -4.4896e-011 7.20928e-028   
     length 1.711   
     axis -5.52449e-016 -90 -90   XYZ
    dof ry
    limits (-180.0 0.0)
  end
  begin
     id 28
     name rhand
     direction -1 -4.48979e-011 1.44186e-027   
     length 0.704599   
     axis -9.20027e-016 -90 -90   XYZ
    dof rx rz
    limits (-90.0 90.0)
           (-45.0 45.0)
  end
  begin
     id 29
     name rfingers
     direction -1 -4.48962e-011 2.88371e-027   
     length 0.568066   
     axis -1.84005e-015 -90 -90   XYZ
    dof rx
    limits (0.0 90.0)
  end
  begin
     id 30
     name rthumb
     direction -0.707107 -6.34949e-011 0.707107   
     length 0.815633   
     axis -90 -45 -2.85299e-015   XYZ
    dof rx rz
    limits (-45.0 45.0)
           (-45.0 45.0)
  end
:hierarchy
  begin
    root lhipjoint rhipjoint lowerback
    lhipjoint lfemur
    lfemur ltibia
    ltibia lfoot
    lfoot ltoes
    rhipjoint rfemur
    rfemur rtibia
    rtibia rfoot
    rfoot rtoes
    lowerback upperback
    upperback thorax
    thorax lowerneck lclavicle rclavicle
    lowerneck upperneck
    upperneck head
    lclavicle lhumerus
    lhumerus lradius
    lradius lwrist
    lwrist lhand lthumb
    lhand lfingers
    rclavicle rhumerus
    rhumerus rradius
    rradius rwrist
    rwrist rhand rthumb
    rhand rfingers
  end

#!OML:ASF E:\id_vita\Project 1\Capture day 1\Session 1\Male1.ASF
:FULLY-SPECIFIED
:DEGREES
212
root -2.91768 15.8527 0.232298 -160.959 79.273 -173.524
lowerback -2.65111 1.60151 -0.0910849
upperback 3.25272 2.18262 -0.203695
thorax 4.84838 1.09624 -0.00957825
lowerneck 1.05432 -3.72655 6.10315
upperneck 9.63174 -4.81282 -0.846469
head 2.71832 -2.11331 -1.40444
rclavicle -3.42158e-014 -6.95746e-016
rhumerus -22.39 -8.70484 -87.0928
rradius 20.235
rwrist 9.02939
rhand -22.0092 33.4162
rfingers 7.12502
rthumb 4.39989 3.4819
lclavicle -3.42158e-014 -6.95746e-016
lhumerus -45.9266 33.851 56.2571
lradius 6.71665
lwrist -24.7701
lhand -13.5465 46.1268
lfingers 7.12502
lthumb 12.5664 75.7288
rfemur 11.2718 1.66293 28.3618
rtibia -6.36111e-015
rfoot -14.7806 3.63013
rtoes -0.673591
lfemur -44.3651 -3.41277 -19.5584
ltibia 35.041
lfoot -14.0718 -18.7118
ltoes 9.15076
213
root -2.78486 15.8388 0.2204 -162.192 79.6041 -174.583
lowerback -2.35748 1.50967 -0.350123
upperback 3.30048 2.07826 -0.307822
thorax 4.72553 1.03897 0.0127285
lowerneck 1.08132 -3.58898 5.90294
upperneck 9.43861 -4.64452 -0.629316
head 2.66294 -2.03771 -1.29299
rclavicle -5.16592e-014 -1.19271e-015
rhumerus -22.7776 -8.66101 -87.1781
rradius 20.0139
rwrist 9.1659
rhand -22.076 33.4254
rfingers 7.12502
rthumb 4.33536 3.4898
lclavicle -5.16592e-014 -1.19271e-015
lhumerus -45.3584 33.8763 56.186
lradius 6.46065
lwrist -24.5943
lhand -13.9115 46.9458
lfingers 7.12502
lthumb 12.2144 76.5692
rfemur 12.0162 1.523 28.0278
rtibia -3.18055e-015
rfoot -14.5787 3.67066
rtoes -2.31395
lfemur -44.1582 -3.93679 -19.494
ltibia 36.4948
lfoot -14.9368 -18.0826
ltoes 11.005
214
root -2.65805 15.8305 0.208293 -163.4 80.1646 -175.883
lowerback -2.2621 1.51621 -0.614573
upperback 3.24858 2.10594 -0.504397
thorax 4.61526 1.04774 -0.0442494
lowerneck 1.13716 -3.42342 5.83511
upperneck 9.18873 -4.43562 -0.441312
head 2.5813 -1.93983 -1.21191
rclavicle -4.09993e-014 -1.11319e-014
rhumerus -23.2694 -8.41176 -87.3431
rradius 19.9943
rwrist 9.03288
rhand -21.8431 33.2044
rfingers 7.12502
rthumb 4.56026 3.2735
lclavicle -4.09993e-014 -1.11319e-014
lhumerus -44.5038 33.9328 56.2469
lradius 5.95374
lwrist -24.5694
lhand -14.1975 47.5242
lfingers 7.12502
lthumb 11.9387 77.1638
rfemur 12.4209 1.6375 27.5611
rtibia 0
rfoot -14.0349 4.21392
rtoes -2.90802
lfemur -44.2364 -4.27478 -19.5085
ltibia 37.7176
lfoot -15.7037 -16.0858
ltoes 10.6835
215
root -2.52879 15.8239 0.195263 -163.971 80.7475 -176.722
lowerback -2.34095 1.53178 -0.800947
upperback 3.15696 2.14117 -0.686692
thorax 4.56504 1.06195 -0.125112
lowerneck 1.16587 -3.21635 5.8937
upperneck 8.9096 -4.17063 -0.310308
head 2.49331 -1.81276 -1.17094
rclavicle 2.95692e-014 -1.66979e-014
rhumerus -23.785 -7.8 -87.6299
rradius 20.1485
rwrist 8.45347
rhand -21.5724 32.7821
rfingers 7.12502
rthumb 4.82163 2.857
lclavicle 2.95692e-014 -1.66979e-014
lhumerus -43.5777 34.0568 56.3448
lradius 5.47923
lwrist -24.5641
lhand -14.6792 48.2025
lfingers 7.12502
lthumb 11.4741 77.8685
rfemur 12.6274 1.82945 27.1636
rtibia -7.63333e-014
rfoot -13.5427 4.88178
rtoes -3.1357
lfemur -44.4892 -4.44224 -19.4805
ltibia 38.6428
lfoot -15.6569 -14.1338
ltoes 10.5075
216
root -2.38816 15.8139 0.184497 -164.935 81.2481 -177.661
lowerback -2.22068 1.54024 -1.04617
upperback 3.19331 2.17105 -0.843138
thorax 4.5319 1.07267 -0.150507
lowerneck 1.18372 -3.07507 6.02493
upperneck 8.56431 -3.99502 -0.169372
head 2.38165 -1.72988 -1.13988
rclavicle 3.08613e-014 -2.96189e-014
rhumerus -24.0722 -7.47207 -87.8603
rradius 20.0864
rwrist 8.07193
rhand -21.8009 32.6637
rfingers 7.12502
rthumb 4.60098 2.7337
lclavicle 3.08613e-014 -2.96189e-014
lhumerus -42.8144 34.0497 56.4021
lradius 5.3744
lwrist -24.479
lhand -15.1369 48.8518
lfingers 7.12502
lthumb 11.0327 78.5418
rfemur 13.2612 1.90669 26.812
rtibia -5.08889e-014
rfoot -13.2254 5.57607
rtoes -3.97322
lfemur -44.3056 -4.65783 -19.4506
ltibia 39.3527
lfoot -15.1048 -12.8059
ltoes 9.7877
217
root -2.23746 15.8123 0.17832 -167.669 81.645 -180.144
lowerback -1.98939 1.54394 -1.55158
upperback 3.32643 2.20867 -1.01495
thorax 4.52778 1.07984 -0.0478198
lowerneck 0.920402 -3.17928 5.47846
upperneck 8.52479 -4.19572 0.510655
head 2.43165 -1.82979 -0.836953
rclavicle 3.47873e-014 1.98785e-016
rhumerus -24.3734 -7.34339 -87.9799
rradius 19.9042
rwrist 8.08254
rhand -22.1945 32.4924
rfingers 7.12502
rthumb 4.22098 2.55452
lclavicle 3.47873e-014 1.98785e-016
lhumerus -41.9321 33.9764 56.613
lradius 5.24285
lwrist -24.3944
lhand -15.5913 49.5728
lfingers 7.12502
lthumb 10.5944 79.2857
rfemur 14.2069 1.81699 26.272
rtibia -9.54166e-015
rfoot -12.6181 6.11082
rtoes -5.86936
lfemur -43.6021 -4.67686 -19.7893
ltibia 39.7948
lfoot -15.1112 -12.1486
ltoes 9.0284
218
root -2.08623 15.8129 0.169443 -171.169 82.1428 -183.525
lowerback -1.93285 1.56017 -2.17761
upperback 3.40114 2.26807 -1.17175
thorax 4.55694 1.09215 0.142884
lowerneck 0.883588 -2.96601 5.74709
upperneck 8.50385 -3.89781 0.180363
head 2.42907 -1.68459 -0.984899
rclavicle -3.57812e-015 -1.92821e-014
rhumerus -24.6424 -7.31125 -87.9636
rradius 19.3122
rwrist 8.3731
rhand -22.38 33.5447
rfingers 7.12502
rthumb 4.04185 3.60325
lclavicle -3.57812e-015 -1.92821e-014
lhumerus -41.0528 34 56.864
lradius 4.98498
lwrist -24.3507
lhand -16.1966 50.135
lfingers 7.12502
lthumb 10.0105 79.877
rfemur 14.9166 1.8556 25.5623
rtibia -1.90833e-014
rfoot -11.8329 6.61923
rtoes -8.5952
lfemur -43.052 -4.66213 -20.2661
ltibia 40.1839
lfoot -15.4845 -11.9943
ltoes 10.3436
219
root -1.92918 15.8557 0.155165 -173.876 82.7403 -186.25
lowerback -1.97448 1.61449 -2.60434
upperback 3.35159 2.36527 -1.30571
thorax 4.51734 1.12932 0.248741
lowerneck 0.913568 -2.85505 5.67948
upperneck 8.50345 -3.74677 0.170862
head 2.42876 -1.61239 -0.973782
rclavicle -8.15017e-015 -1.27222e-014
rhumerus -24.9817 -7.17167 -87.9729
rradius 18.6826
rwrist 8.41727
rhand -22.2979 34.3227
rfingers 7.12502
rthumb 4.12114 4.38278
lclavicle -8.15017e-015 -1.27222e-014
lhumerus -40.3617 33.9973 57.0705
lradius 4.87265
lwrist -24.3724
lhand -16.6441 50.3285
lfingers 7.12502
lthumb 9.57878 80.0908
rfemur 15.2586 2.04914 25.0029
rtibia 0
rfoot -10.6283 7.98377
rtoes -6.97827
lfemur -42.5666 -4.61647 -20.6122
ltibia 40.4621
lfoot -15.9472 -12.1734
ltoes 12.1217
220
root -1.77357 15.8736 0.138763 -175.908 83.2405 -188.382
lowerback -2.17684 1.61905 -2.81944
upperback 3.24811 2.39166 -1.46616
thorax 4.52299 1.13828 0.209511
lowerneck 1.09985 -2.70849 5.53735
upperneck 8.40926 -3.54281 0.294658
head 2.37373 -1.51495 -0.902012
rclavicle -3.68746e-014 8.74653e-015
rhumerus -25.4487 -6.93598 -88.1358
rradius 18.2782
rwrist 8.68748
rhand -22.0355 34.1048
rfingers 7.12502
rthumb 4.37451 4.16999
lclavicle -3.68746e-014 8.74653e-015
lhumerus -39.7925 33.9961 57.159
lradius 4.90359
lwrist -24.5145
lhand -16.8677 50.5436
lfingers 7.12502
lthumb 9.36296 80.3156
rfemur 15.6516 2.18506 24.5493
rtibia 2.22639e-014
rfoot -9.56667 9.03871
rtoes -6.50775
lfemur -42.0984 -4.70336 -20.8151
ltibia 40.7661
lfoot -16.8286 -11.6525
ltoes 10.4543
221
root -1.62186 15.8802 0.114989 -178.017 83.9274 -190.853
lowerback -2.67801 1.63962 -2.90752
upperback 3.0899 2.44667 -1.681
thorax 4.64821 1.16479 0.0539617
lowerneck 1.23278 -2.5121 5.60328
upperneck 8.35155 -3.27307 0.333635
head 2.33812 -1.37953 -0.894024
rclavicle 1.85864e-014 2.46493e-014
rhumerus -25.7956 -6.91725 -88.2597
rradius 17.7735
rwrist 9.89096
rhand -21.0935 33.0308
rfingers 7.12502
rthumb 5.2841 3.11667
lclavicle 1.85864e-014 2.46493e-014
lhumerus -39.2633 34.073 57.1177
lradius 4.99577
lwrist -24.8645
lhand -17.0262 50.9194
lfingers 7.12502
lthumb 9.21006 80.6983
rfemur 15.7675 2.55465 23.959
rtibia -1.59028e-014
rfoot -8.35091 10.3349
rtoes -8.98444
lfemur -41.7394 -4.82387 -20.9802
ltibia 40.9927
lfoot -17.8028 -10.0236
ltoes 5.70981
222
root -1.46946 15.8902 0.0880446 -180.887 84.6115 -194.151
lowerback -3.21641 1.69043 -3.09396
upperback 2.90576 2.54449 -1.80507
thorax 4.75883 1.20724 0.0510106
lowerneck 1.23785 -2.38824 5.58812
upperneck 8.47617 -3.1116 0.413478
head 2.38441 -1.2931 -0.865333
rclavicle -2.37548e-014 3.18055e-015
rhumerus -26.1466 -6.58363 -88.2443
rradius 17.2401
rwrist 11.117
rhand -21.7374 32.3436
rfingers 7.12502
rthumb 4.66238 2.41495
lclavicle -2.37548e-014 3.18055e-015
lhumerus -38.6742 34.1869 57.3371
lradius 5.05364
lwrist -25.4233
lhand -17.2065 51.0397
lfingers 7.12502
lthumb 9.03609 80.8262
rfemur 15.6955 2.94405 23.2703
rtibia -6.36111e-015
rfoot -6.77997 11.9229
rtoes -7.9797
lfemur -41.4296 -4.94662 -21.2178
ltibia 41.2326
lfoot -18.629 -8.28921
ltoes 0.768382
223
root -1.31196 15.9025 0.0673372 -183.551 85.0199 -197.049
lowerback -3.57658 1.66935 -3.31784
upperback 2.71243 2.53787 -1.8466
thorax 4.75501 1.197 0.141169
lowerneck 1.30556 -2.283 5.41324
upperneck 8.65929 -2.96879 0.496496
head 2.43989 -1.21884 -0.808027
rclavicle -5.11871e-014 7.15625e-015
rhumerus -26.6265 -6.20335 -88.2017
rradius 16.6428
rwrist 12.1491
rhand -24.0207 35.2143
rfingers 7.12502
rthumb 2.45739 5.2487
lclavicle -5.11871e-014 7.15625e-015
lhumerus -38.3199 34.2173 57.5609
lradius 5.32755
lwrist -26.0175
lhand -17.4137 50.9822
lfingers 7.12502
lthumb 8.83612 80.7772
rfemur 12.2424 2.99736 22.7171
rtibia 7.2936
rfoot -9.01162 11.9417
rtoes -10.8481
lfemur -40.9776 -5.09503 -21.4465
ltibia 41.3817
lfoot -19.3451 -6.96751
ltoes -2.17761
224
root -1.15425 15.9176 0.0481757 -184.937 85.4934 -198.662
lowerback -3.8031 1.68454 -3.23314
upperback 2.40712 2.5554 -1.97288
thorax 4.57393 1.2141 -0.032489
lowerneck 1.19112 -2.21597 5.53094
upperneck 9.084 -2.88513 0.466676
head 2.60338 -1.15918 -0.843304
rclavicle -3.26007e-014 3.97569e-016
rhumerus -27.2573 -6.06554 -88.2882
rradius 16.2006
rwrist 13.1445
rhand -23.8617 35.2251
rfingers 7.12502
rthumb 2.61093 5.26134
lclavicle -3.26007e-014 3.97569e-016
lhumerus -38.0865 34.0435 57.5146
lradius 5.68895
lwrist -26.626
lhand -17.4192 50.9279
lfingers 7.12502
lthumb 8.83078 80.7231
rfemur 10.496 3.12404 22.3321
rtibia 11.0009
rfoot -9.32556 12.5115
rtoes -11.9969
lfemur -40.5561 -5.17244 -21.4985
ltibia 41.4494
lfoot -19.9554 -5.79458
ltoes -2.71944
225
root -0.9947 15.9314 0.0295005 -187.785 85.266 -201.272
lowerback -3.96597 1.49259 -3.42339
upperback 2.56726 2.32874 -1.98672
thorax 4.83246 1.09203 0.0494548
lowerneck 0.878605 -2.15499 5.50674
upperneck 9.27841 -2.82651 0.409476
head 2.72687 -1.12748 -0.864247
rclavicle -2.74323e-014 -1.03368e-014
rhumerus -27.2954 -6.06768 -88.1125
rradius 15.6573
rwrist 14.4152
rhand -23.5944 35.0354
rfingers 7.12502
rthumb 2.8691 5.07492
lclavicle -2.74323e-014 -1.03368e-014
lhumerus -37.0187 34.2957 58.1115
lradius 5.5196
lwrist -27.3853
lhand -17.4088 50.8178
lfingers 7.12502
lthumb 8.84088 80.6126
rfemur 9.63809 2.72085 21.8376
rtibia 13.9482
rfoot -7.99154 13.9509
rtoes -10.8004
lfemur -39.5951 -5.70662 -21.8056
ltibia 41.4816
lfoot -19.8962 -5.37094
ltoes -1.05299
226
root -0.841059 15.9546 0.0123455 -188.84 85.1148 -202.172
lowerback -3.93944 1.30247 -3.57783
upperback 2.55843 2.07744 -1.89495
thorax 4.80562 0.960767 0.210029
lowerneck 1.04609 -2.33396 5.24301
upperneck 8.8615 -3.05907 0.489459
head 2.55358 -1.26474 -0.78954
rclavicle -2.77305e-014 4.53229e-014
rhumerus -27.3908 -6.96789 -87.4584
rradius 14.6954
rwrist 17.0225
rhand -23.4216 34.9018
rfingers 7.12502
rthumb 3.03595 4.94369
lclavicle -2.77305e-014 4.53229e-014
lhumerus -36.2729 34.5523 58.6755
lradius 5.49117
lwrist -28.1686
lhand -17.4061 50.789
lfingers 7.12502
lthumb 8.84344 80.5837
rfemur 8.53523 2.33761 21.4488
rtibia 16.9574
rfoot -5.5961 15.6552
rtoes -6.63849
lfemur -38.7852 -6.17348 -21.9123
ltibia 41.4874
lfoot -20.0968 -5.31348
ltoes 1.76056
